<svg width="44" height="44" viewBox="0 0 44 44" fill="none" xmlns="http://www.w3.org/2000/svg">
<path d="M44 22C44 28.0751 41.5376 33.5751 37.5564 37.5564C33.5751 41.5376 28.0751 44 22 44C15.9249 44 10.4249 41.5376 6.44365 37.5564C2.46243 33.5751 0 28.0751 0 22C0 15.9249 2.46243 10.4249 6.44365 6.44365C10.4249 2.46243 15.9249 0 22 0C28.0751 0 33.5751 2.46243 37.5564 6.44365C41.5376 10.4249 44 15.9249 44 22Z" fill="#E5E5E5"/>
<path d="M22 0.5C27.9372 0.5 33.3118 2.90559 37.2031 6.79688C41.0944 10.6882 43.5 16.0628 43.5 22C43.5 27.9372 41.0944 33.3118 37.2031 37.2031C33.3118 41.0944 27.9372 43.5 22 43.5C16.0628 43.5 10.6882 41.0944 6.79687 37.2031C2.90559 33.3118 0.5 27.9372 0.5 22C0.5 16.0628 2.90559 10.6882 6.79688 6.79688C10.6882 2.90559 16.0628 0.5 22 0.5Z" stroke="black" stroke-opacity="0.3"/>
</svg>
